<mxfile host="app.diagrams.net" modified="2023-10-06T12:10:54.254Z" agent="Mozilla/5.0 (Windows NT 10.0; Win64; x64; rv:109.0) Gecko/20100101 Firefox/118.0" etag="FLaCGCQs7jOedillC2MN" version="22.0.3" type="device">
  <diagram name="Seite-1" id="SC1Sk8JoETiFU0kyQ3e9">
    <mxGraphModel dx="1050" dy="566" grid="1" gridSize="10" guides="1" tooltips="1" connect="1" arrows="1" fold="1" page="1" pageScale="1" pageWidth="827" pageHeight="1169" math="0" shadow="0">
      <root>
        <mxCell id="0" />
        <mxCell id="1" parent="0" />
        <mxCell id="sbd9_M3tZtOZp3rDJYVd-1" value="" style="rounded=1;jumpStyle=none;html=1;shadow=0;labelBackgroundColor=none;startArrow=none;startFill=0;jettySize=auto;orthogonalLoop=1;strokeColor=#990000;strokeWidth=3;fontFamily=Helvetica;fontSize=14;fontColor=#FFFFFF;spacing=5;fontStyle=1;fillColor=#b0e3e6;endArrow=none;endFill=0;opacity=20;" parent="1" source="sbd9_M3tZtOZp3rDJYVd-6" target="sbd9_M3tZtOZp3rDJYVd-3" edge="1">
          <mxGeometry relative="1" as="geometry">
            <mxPoint x="257.59375" y="62.000000000000114" as="targetPoint" />
          </mxGeometry>
        </mxCell>
        <mxCell id="sbd9_M3tZtOZp3rDJYVd-3" value="Softwareentwicklungsprozess" style="rounded=1;whiteSpace=wrap;html=1;shadow=1;labelBackgroundColor=none;strokeColor=none;strokeWidth=3;fillColor=#CC0000;fontFamily=Helvetica;fontSize=18;fontColor=#FFFFFF;align=center;spacing=5;fontStyle=0;arcSize=7;perimeterSpacing=2;opacity=20;" parent="1" vertex="1">
          <mxGeometry x="95" y="40" width="290" height="40" as="geometry" />
        </mxCell>
        <mxCell id="sbd9_M3tZtOZp3rDJYVd-4" value="Softwareprodukt" style="rounded=1;whiteSpace=wrap;html=1;shadow=1;labelBackgroundColor=none;strokeColor=none;strokeWidth=3;fillColor=#CC0000;fontFamily=Helvetica;fontSize=18;fontColor=#FFFFFF;align=center;spacing=5;fontStyle=0;arcSize=7;perimeterSpacing=2;opacity=20;" parent="1" vertex="1">
          <mxGeometry x="40" y="120" width="180" height="40" as="geometry" />
        </mxCell>
        <mxCell id="sbd9_M3tZtOZp3rDJYVd-5" value="Realwelt" style="rounded=1;whiteSpace=wrap;html=1;shadow=1;labelBackgroundColor=none;strokeColor=none;strokeWidth=3;fillColor=#CC0000;fontFamily=Helvetica;fontSize=18;fontColor=#FFFFFF;align=center;spacing=5;fontStyle=0;arcSize=7;perimeterSpacing=2;" parent="1" vertex="1">
          <mxGeometry x="20" y="200" width="125" height="40" as="geometry" />
        </mxCell>
        <mxCell id="sbd9_M3tZtOZp3rDJYVd-6" value="Modellierungsgegenstand" style="rounded=1;whiteSpace=wrap;html=1;shadow=1;labelBackgroundColor=none;strokeColor=none;strokeWidth=3;fillColor=#990000;fontFamily=Helvetica;fontSize=26;fontColor=#FFFFFF;align=center;spacing=5;fontStyle=0;arcSize=7;perimeterSpacing=2;" parent="1" vertex="1">
          <mxGeometry x="70" y="310" width="340" height="60" as="geometry" />
        </mxCell>
        <mxCell id="sbd9_M3tZtOZp3rDJYVd-7" value="" style="rounded=1;jumpStyle=none;html=1;shadow=0;labelBackgroundColor=none;startArrow=none;startFill=0;jettySize=auto;orthogonalLoop=1;strokeColor=#990000;strokeWidth=3;fontFamily=Helvetica;fontSize=14;fontColor=#FFFFFF;spacing=5;fontStyle=1;fillColor=#b0e3e6;endArrow=none;endFill=0;" parent="1" source="sbd9_M3tZtOZp3rDJYVd-6" target="sbd9_M3tZtOZp3rDJYVd-5" edge="1">
          <mxGeometry relative="1" as="geometry">
            <mxPoint x="124.0360610263524" y="201.7500000000001" as="targetPoint" />
          </mxGeometry>
        </mxCell>
        <mxCell id="sbd9_M3tZtOZp3rDJYVd-8" value="" style="rounded=1;jumpStyle=none;html=1;shadow=0;labelBackgroundColor=none;startArrow=none;startFill=0;jettySize=auto;orthogonalLoop=1;strokeColor=#990000;strokeWidth=3;fontFamily=Helvetica;fontSize=14;fontColor=#FFFFFF;spacing=5;fontStyle=1;fillColor=#b0e3e6;endArrow=none;endFill=0;opacity=20;" parent="1" source="sbd9_M3tZtOZp3rDJYVd-6" target="sbd9_M3tZtOZp3rDJYVd-4" edge="1">
          <mxGeometry relative="1" as="geometry">
            <mxPoint x="179.4000000000001" y="132.0000000000001" as="targetPoint" />
          </mxGeometry>
        </mxCell>
      </root>
    </mxGraphModel>
  </diagram>
</mxfile>
